<?xml version="1.0" encoding="UTF-8" standalone="no"?><svg xmlns="http://www.w3.org/2000/svg" xmlns:xlink="http://www.w3.org/1999/xlink" contentScriptType="application/ecmascript" contentStyleType="text/css" height="227px" preserveAspectRatio="none" style="width:155px;height:227px;" version="1.1" viewBox="0 0 155 227" width="155px" zoomAndPan="magnify"><defs><filter height="300%" id="fafkx8ajtb55h" width="300%" x="-1" y="-1"><feGaussianBlur result="blurOut" stdDeviation="2.0"/><feColorMatrix in="blurOut" result="blurOut2" type="matrix" values="0 0 0 0 0 0 0 0 0 0 0 0 0 0 0 0 0 0 .4 0"/><feOffset dx="4.0" dy="4.0" in="blurOut2" result="blurOut3"/><feBlend in="SourceGraphic" in2="blurOut3" mode="normal"/></filter></defs><g><rect fill="#FEFECE" filter="url(#fafkx8ajtb55h)" height="34.1328" rx="12.5" ry="12.5" style="stroke: #A80036; stroke-width: 1.5;" width="46" x="57.5" y="10"/><text fill="#000000" font-family="sans-serif" font-size="12" lengthAdjust="spacingAndGlyphs" textLength="26" x="67.5" y="31.6016">start</text><polygon fill="#FEFECE" filter="url(#fafkx8ajtb55h)" points="68.5,64.1328,92.5,64.1328,104.5,76.1328,92.5,88.1328,68.5,88.1328,56.5,76.1328,68.5,64.1328" style="stroke: #A80036; stroke-width: 1.5;"/><text fill="#000000" font-family="sans-serif" font-size="11" lengthAdjust="spacingAndGlyphs" textLength="20" x="70.5" y="80.29">test</text><text fill="#000000" font-family="sans-serif" font-size="11" lengthAdjust="spacingAndGlyphs" textLength="22" x="34.5" y="73.8125">true</text><text fill="#000000" font-family="sans-serif" font-size="11" lengthAdjust="spacingAndGlyphs" textLength="25" x="104.5" y="73.8125">false</text><rect fill="#FEFECE" filter="url(#fafkx8ajtb55h)" height="34.1328" rx="12.5" ry="12.5" style="stroke: #A80036; stroke-width: 1.5;" width="64" x="10" y="98.1328"/><text fill="#000000" font-family="sans-serif" font-size="12" lengthAdjust="spacingAndGlyphs" textLength="44" x="20" y="119.7344">do stuff</text><rect fill="#FEFECE" filter="url(#fafkx8ajtb55h)" height="34.1328" rx="12.5" ry="12.5" style="stroke: #A80036; stroke-width: 1.5;" width="50" x="94" y="98.1328"/><text fill="#000000" font-family="sans-serif" font-size="12" lengthAdjust="spacingAndGlyphs" textLength="30" x="104" y="119.7344">other</text><polygon fill="#FEFECE" filter="url(#fafkx8ajtb55h)" points="80.5,138.2656,92.5,150.2656,80.5,162.2656,68.5,150.2656,80.5,138.2656" style="stroke: #A80036; stroke-width: 1.5;"/><rect fill="#FEFECE" filter="url(#fafkx8ajtb55h)" height="34.1328" rx="12.5" ry="12.5" style="stroke: #A80036; stroke-width: 1.5;" width="45" x="58" y="182.2656"/><text fill="#000000" font-family="sans-serif" font-size="12" lengthAdjust="spacingAndGlyphs" textLength="25" x="68" y="203.8672">stop</text><line style="stroke: #A80036; stroke-width: 1.5;" x1="56.5" x2="42" y1="76.1328" y2="76.1328"/><line style="stroke: #A80036; stroke-width: 1.5;" x1="42" x2="42" y1="76.1328" y2="98.1328"/><polygon fill="#A80036" points="38,88.1328,42,98.1328,46,88.1328,42,92.1328" style="stroke: #A80036; stroke-width: 1.0;"/><line style="stroke: #A80036; stroke-width: 1.5;" x1="104.5" x2="119" y1="76.1328" y2="76.1328"/><line style="stroke: #A80036; stroke-width: 1.5;" x1="119" x2="119" y1="76.1328" y2="98.1328"/><polygon fill="#A80036" points="115,88.1328,119,98.1328,123,88.1328,119,92.1328" style="stroke: #A80036; stroke-width: 1.0;"/><line style="stroke: #A80036; stroke-width: 1.5;" x1="42" x2="42" y1="132.2656" y2="150.2656"/><line style="stroke: #A80036; stroke-width: 1.5;" x1="42" x2="68.5" y1="150.2656" y2="150.2656"/><polygon fill="#A80036" points="58.5,146.2656,68.5,150.2656,58.5,154.2656,62.5,150.2656" style="stroke: #A80036; stroke-width: 1.0;"/><line style="stroke: #A80036; stroke-width: 1.5;" x1="119" x2="119" y1="132.2656" y2="150.2656"/><line style="stroke: #A80036; stroke-width: 1.5;" x1="119" x2="92.5" y1="150.2656" y2="150.2656"/><polygon fill="#A80036" points="102.5,146.2656,92.5,150.2656,102.5,154.2656,98.5,150.2656" style="stroke: #A80036; stroke-width: 1.0;"/><line style="stroke: #A80036; stroke-width: 1.5;" x1="80.5" x2="80.5" y1="44.1328" y2="64.1328"/><polygon fill="#A80036" points="76.5,54.1328,80.5,64.1328,84.5,54.1328,80.5,58.1328" style="stroke: #A80036; stroke-width: 1.0;"/><line style="stroke: #A80036; stroke-width: 1.5;" x1="80.5" x2="80.5" y1="162.2656" y2="182.2656"/><polygon fill="#A80036" points="76.5,172.2656,80.5,182.2656,84.5,172.2656,80.5,176.2656" style="stroke: #A80036; stroke-width: 1.0;"/><!--
@startuml
:start;
if (test) then (true)
  :do stuff;
else (false)
  :other;
endif 
:stop;
@enduml

PlantUML version 1.2017.20(Mon Dec 11 17:57:05 CET 2017)
(GPL source distribution)
Java Runtime: Java(TM) SE Runtime Environment
JVM: Java HotSpot(TM) 64-Bit Server VM
Java Version: 1.8.0_161-b12
Operating System: Mac OS X
OS Version: 10.10.5
Default Encoding: UTF-8
Language: nb
Country: null
--></g></svg>