<?xml version="1.0" encoding="UTF-8" standalone="no"?>
<!DOCTYPE svg PUBLIC "-//W3C//DTD SVG 1.1//EN"
 "http://www.w3.org/Graphics/SVG/1.1/DTD/svg11.dtd">
<!-- Generated by graphviz version 2.40.1 (20161225.0304)
 -->
<!-- Title: G Pages: 1 -->
<svg width="166pt" height="495pt"
 viewBox="0.00 0.00 165.90 495.00" xmlns="http://www.w3.org/2000/svg" xmlns:xlink="http://www.w3.org/1999/xlink">
<g id="graph0" class="graph" transform="scale(1 1) rotate(0) translate(4 491)">
<title>G</title>
<polygon fill="#ffffff" stroke="transparent" points="-4,4 -4,-491 161.896,-491 161.896,4 -4,4"/>
<!-- A0 -->
<g id="node1" class="node">
<title>A0</title>
<ellipse fill="none" stroke="#000000" cx="32.891" cy="-476" rx="11" ry="11"/>
</g>
<!-- A1 -->
<g id="node2" class="node">
<title>A1</title>
<path fill="none" stroke="#000000" d="M53.6734,-428C53.6734,-428 12.1086,-428 12.1086,-428 6.1086,-428 .1086,-422 .1086,-416 .1086,-416 .1086,-404 .1086,-404 .1086,-398 6.1086,-392 12.1086,-392 12.1086,-392 53.6734,-392 53.6734,-392 59.6734,-392 65.6734,-398 65.6734,-404 65.6734,-404 65.6734,-416 65.6734,-416 65.6734,-422 59.6734,-428 53.6734,-428"/>
<text text-anchor="middle" x="32.891" y="-407" font-family="Helvetica,sans-Serif" font-size="10.00" fill="#000000">les alder</text>
</g>
<!-- A0&#45;&gt;A1 -->
<g id="edge1" class="edge">
<title>A0&#45;&gt;A1</title>
<path fill="none" stroke="#000000" d="M32.891,-464.804C32.891,-457.5358 32.891,-447.7135 32.891,-438.3916"/>
<polygon fill="#000000" stroke="#000000" points="32.891,-428.2423 37.3911,-438.2423 32.891,-433.2423 32.8911,-438.2423 32.8911,-438.2423 32.8911,-438.2423 32.891,-433.2423 28.3911,-438.2424 32.891,-428.2423 32.891,-428.2423"/>
</g>
<!-- A2 -->
<g id="node3" class="node">
<title>A2</title>
<polygon fill="none" stroke="#000000" points="32.891,-355 14.891,-337 32.891,-319 50.891,-337 32.891,-355"/>
</g>
<!-- A1&#45;&gt;A2 -->
<g id="edge2" class="edge">
<title>A1&#45;&gt;A2</title>
<path fill="none" stroke="#000000" d="M32.891,-391.9551C32.891,-383.8828 32.891,-374.1764 32.891,-365.1817"/>
<polygon fill="#000000" stroke="#000000" points="32.891,-355.0904 37.3911,-365.0903 32.891,-360.0904 32.8911,-365.0904 32.8911,-365.0904 32.8911,-365.0904 32.891,-360.0904 28.3911,-365.0904 32.891,-355.0904 32.891,-355.0904"/>
</g>
<!-- A3 -->
<g id="node4" class="node">
<title>A3</title>
<path fill="none" stroke="#000000" d="M49.891,-103C49.891,-103 19.891,-103 19.891,-103 13.891,-103 7.891,-97 7.891,-91 7.891,-91 7.891,-79 7.891,-79 7.891,-73 13.891,-67 19.891,-67 19.891,-67 49.891,-67 49.891,-67 55.891,-67 61.891,-73 61.891,-79 61.891,-79 61.891,-91 61.891,-91 61.891,-97 55.891,-103 49.891,-103"/>
<text text-anchor="middle" x="34.891" y="-82" font-family="Helvetica,sans-Serif" font-size="10.00" fill="#000000">Feil</text>
</g>
<!-- A2&#45;&gt;A3 -->
<g id="edge3" class="edge">
<title>A2&#45;&gt;A3</title>
<path fill="none" stroke="#000000" d="M30.5877,-321.1652C27.2558,-296.402 21.6933,-246.9942 23.655,-205 25.1264,-173.5014 28.7591,-137.5035 31.4986,-113.2188"/>
<polygon fill="#000000" stroke="#000000" points="32.6463,-103.2598 35.9718,-113.7092 32.0738,-108.2269 31.5014,-113.194 31.5014,-113.194 31.5014,-113.194 32.0738,-108.2269 27.031,-112.6789 32.6463,-103.2598 32.6463,-103.2598"/>
<text text-anchor="middle" x="55.009" y="-208" font-family="Helvetica,sans-Serif" font-size="10.00" fill="#000000">[ugyldig alder]</text>
</g>
<!-- A4 -->
<g id="node5" class="node">
<title>A4</title>
<path fill="none" stroke="#000000" d="M107.8435,-271C107.8435,-271 63.9385,-271 63.9385,-271 57.9385,-271 51.9385,-265 51.9385,-259 51.9385,-259 51.9385,-247 51.9385,-247 51.9385,-241 57.9385,-235 63.9385,-235 63.9385,-235 107.8435,-235 107.8435,-235 113.8435,-235 119.8435,-241 119.8435,-247 119.8435,-247 119.8435,-259 119.8435,-259 119.8435,-265 113.8435,-271 107.8435,-271"/>
<text text-anchor="middle" x="85.891" y="-250" font-family="Helvetica,sans-Serif" font-size="10.00" fill="#000000">les antall</text>
</g>
<!-- A2&#45;&gt;A4 -->
<g id="edge4" class="edge">
<title>A2&#45;&gt;A4</title>
<path fill="none" stroke="#000000" d="M40.0388,-325.6714C47.4082,-313.9917 59.1677,-295.3539 68.9325,-279.8777"/>
<polygon fill="#000000" stroke="#000000" points="74.403,-271.2073 72.8726,-282.0659 71.7349,-275.436 69.0668,-279.6646 69.0668,-279.6646 69.0668,-279.6646 71.7349,-275.436 65.2611,-277.2634 74.403,-271.2073 74.403,-271.2073"/>
<text text-anchor="middle" x="91.2295" y="-292" font-family="Helvetica,sans-Serif" font-size="10.00" fill="#000000">[gyldig alder]</text>
</g>
<!-- A5 -->
<g id="node6" class="node">
<title>A5</title>
<ellipse fill="none" stroke="#000000" cx="75.891" cy="-15" rx="11" ry="11"/>
<ellipse fill="none" stroke="#000000" cx="75.891" cy="-15" rx="15" ry="15"/>
</g>
<!-- A3&#45;&gt;A5 -->
<g id="edge5" class="edge">
<title>A3&#45;&gt;A5</title>
<path fill="none" stroke="#000000" d="M45.4495,-66.9733C50.8436,-57.7638 57.4494,-46.4857 63.1272,-36.7918"/>
<polygon fill="#000000" stroke="#000000" points="68.2168,-28.1023 67.0457,-39.0055 65.6898,-32.4167 63.1627,-36.7311 63.1627,-36.7311 63.1627,-36.7311 65.6898,-32.4167 59.2797,-34.4568 68.2168,-28.1023 68.2168,-28.1023"/>
</g>
<!-- A6 -->
<g id="node7" class="node">
<title>A6</title>
<polygon fill="none" stroke="#000000" points="93.891,-187 75.891,-169 93.891,-151 111.891,-169 93.891,-187"/>
</g>
<!-- A4&#45;&gt;A6 -->
<g id="edge6" class="edge">
<title>A4&#45;&gt;A6</title>
<path fill="none" stroke="#000000" d="M87.6269,-234.7733C88.7183,-223.3134 90.145,-208.3326 91.3612,-195.5633"/>
<polygon fill="#000000" stroke="#000000" points="92.3212,-185.483 95.8527,-195.8646 91.8471,-190.4604 91.373,-195.4379 91.373,-195.4379 91.373,-195.4379 91.8471,-190.4604 86.8933,-195.0112 92.3212,-185.483 92.3212,-185.483"/>
</g>
<!-- A6&#45;&gt;A3 -->
<g id="edge7" class="edge">
<title>A6&#45;&gt;A3</title>
<path fill="none" stroke="#000000" d="M83.3069,-161.4588C74.5979,-154.8008 62.435,-144.4007 54.483,-133 50.2623,-126.9487 46.7358,-119.8515 43.8917,-112.9986"/>
<polygon fill="#000000" stroke="#000000" points="40.2117,-103.2833 47.9622,-111.0408 41.9829,-107.9591 43.754,-112.6349 43.754,-112.6349 43.754,-112.6349 41.9829,-107.9591 39.5458,-114.2289 40.2117,-103.2833 40.2117,-103.2833"/>
<text text-anchor="middle" x="78.095" y="-124" font-family="Helvetica,sans-Serif" font-size="10.00" fill="#000000">[antall &gt; 7]</text>
</g>
<!-- A7 -->
<g id="node8" class="node">
<title>A7</title>
<path fill="none" stroke="#000000" d="M145.901,-103C145.901,-103 91.881,-103 91.881,-103 85.881,-103 79.881,-97 79.881,-91 79.881,-91 79.881,-79 79.881,-79 79.881,-73 85.881,-67 91.881,-67 91.881,-67 145.901,-67 145.901,-67 151.901,-67 157.901,-73 157.901,-79 157.901,-79 157.901,-91 157.901,-91 157.901,-97 151.901,-103 145.901,-103"/>
<text text-anchor="middle" x="118.891" y="-82" font-family="Helvetica,sans-Serif" font-size="10.00" fill="#000000">beregn pris</text>
</g>
<!-- A6&#45;&gt;A7 -->
<g id="edge8" class="edge">
<title>A6&#45;&gt;A7</title>
<path fill="none" stroke="#000000" d="M98.1319,-154.7505C101.5398,-143.3002 106.43,-126.869 110.6082,-112.8303"/>
<polygon fill="#000000" stroke="#000000" points="113.4933,-103.1362 114.9537,-114.0044 112.067,-107.9285 110.6407,-112.7208 110.6407,-112.7208 110.6407,-112.7208 112.067,-107.9285 106.3277,-111.4371 113.4933,-103.1362 113.4933,-103.1362"/>
<text text-anchor="middle" x="128.286" y="-124" font-family="Helvetica,sans-Serif" font-size="10.00" fill="#000000">[ok antall]</text>
</g>
<!-- A7&#45;&gt;A5 -->
<g id="edge9" class="edge">
<title>A7&#45;&gt;A5</title>
<path fill="none" stroke="#000000" d="M107.8174,-66.9733C102.1602,-57.7638 95.2322,-46.4857 89.2774,-36.7918"/>
<polygon fill="#000000" stroke="#000000" points="83.9396,-28.1023 93.0081,-34.2677 86.5567,-32.3627 89.1738,-36.6231 89.1738,-36.6231 89.1738,-36.6231 86.5567,-32.3627 85.3394,-38.9785 83.9396,-28.1023 83.9396,-28.1023"/>
</g>
</g>
</svg>
