<?xml version="1.0" encoding="UTF-8" standalone="no"?>
<!DOCTYPE svg PUBLIC "-//W3C//DTD SVG 1.1//EN"
 "http://www.w3.org/Graphics/SVG/1.1/DTD/svg11.dtd">
<!-- Generated by graphviz version 2.40.1 (20161225.0304)
 -->
<!-- Title: G Pages: 1 -->
<svg width="158pt" height="495pt"
 viewBox="0.00 0.00 158.00 495.00" xmlns="http://www.w3.org/2000/svg" xmlns:xlink="http://www.w3.org/1999/xlink">
<g id="graph0" class="graph" transform="scale(1 1) rotate(0) translate(4 491)">
<title>G</title>
<polygon fill="#ffffff" stroke="transparent" points="-4,4 -4,-491 154.005,-491 154.005,4 -4,4"/>
<!-- A0 -->
<g id="node1" class="node">
<title>A0</title>
<ellipse fill="none" stroke="#000000" cx="38" cy="-476" rx="11" ry="11"/>
</g>
<!-- A1 -->
<g id="node2" class="node">
<title>A1</title>
<path fill="none" stroke="#000000" d="M58.7824,-428C58.7824,-428 17.2176,-428 17.2176,-428 11.2176,-428 5.2176,-422 5.2176,-416 5.2176,-416 5.2176,-404 5.2176,-404 5.2176,-398 11.2176,-392 17.2176,-392 17.2176,-392 58.7824,-392 58.7824,-392 64.7824,-392 70.7824,-398 70.7824,-404 70.7824,-404 70.7824,-416 70.7824,-416 70.7824,-422 64.7824,-428 58.7824,-428"/>
<text text-anchor="middle" x="38" y="-407" font-family="Helvetica,sans-Serif" font-size="10.00" fill="#000000">les alder</text>
</g>
<!-- A0&#45;&gt;A1 -->
<g id="edge1" class="edge">
<title>A0&#45;&gt;A1</title>
<path fill="none" stroke="#000000" d="M38,-464.804C38,-457.5358 38,-447.7135 38,-438.3916"/>
<polygon fill="#000000" stroke="#000000" points="38,-428.2423 42.5001,-438.2423 38,-433.2423 38.0001,-438.2423 38.0001,-438.2423 38.0001,-438.2423 38,-433.2423 33.5001,-438.2424 38,-428.2423 38,-428.2423"/>
</g>
<!-- A2 -->
<g id="node3" class="node">
<title>A2</title>
<polygon fill="none" stroke="#000000" points="38,-355 20,-337 38,-319 56,-337 38,-355"/>
</g>
<!-- A1&#45;&gt;A2 -->
<g id="edge2" class="edge">
<title>A1&#45;&gt;A2</title>
<path fill="none" stroke="#000000" d="M38,-391.9551C38,-383.8828 38,-374.1764 38,-365.1817"/>
<polygon fill="#000000" stroke="#000000" points="38,-355.0904 42.5001,-365.0903 38,-360.0904 38.0001,-365.0904 38.0001,-365.0904 38.0001,-365.0904 38,-360.0904 33.5001,-365.0904 38,-355.0904 38,-355.0904"/>
</g>
<!-- A3 -->
<g id="node4" class="node">
<title>A3</title>
<path fill="none" stroke="#000000" d="M42,-103C42,-103 12,-103 12,-103 6,-103 0,-97 0,-91 0,-91 0,-79 0,-79 0,-73 6,-67 12,-67 12,-67 42,-67 42,-67 48,-67 54,-73 54,-79 54,-79 54,-91 54,-91 54,-97 48,-103 42,-103"/>
<text text-anchor="middle" x="27" y="-82" font-family="Helvetica,sans-Serif" font-size="10.00" fill="#000000">Feil</text>
</g>
<!-- A2&#45;&gt;A3 -->
<g id="edge3" class="edge">
<title>A2&#45;&gt;A3</title>
<path fill="none" stroke="#000000" d="M36.9261,-319.9163C35.4917,-296.6485 32.9432,-253.6876 31.322,-217 29.7473,-181.365 28.4904,-140.295 27.7466,-113.5546"/>
<polygon fill="#000000" stroke="#000000" points="27.4689,-103.3696 32.2399,-113.2432 27.6052,-108.3678 27.7415,-113.3659 27.7415,-113.3659 27.7415,-113.3659 27.6052,-108.3678 23.2432,-113.4886 27.4689,-103.3696 27.4689,-103.3696"/>
<text text-anchor="middle" x="60.339" y="-208" font-family="Helvetica,sans-Serif" font-size="10.00" fill="#000000">ugyldig alder</text>
</g>
<!-- A4 -->
<g id="node5" class="node">
<title>A4</title>
<path fill="none" stroke="#000000" d="M110.9525,-271C110.9525,-271 67.0475,-271 67.0475,-271 61.0475,-271 55.0475,-265 55.0475,-259 55.0475,-259 55.0475,-247 55.0475,-247 55.0475,-241 61.0475,-235 67.0475,-235 67.0475,-235 110.9525,-235 110.9525,-235 116.9525,-235 122.9525,-241 122.9525,-247 122.9525,-247 122.9525,-259 122.9525,-259 122.9525,-265 116.9525,-271 110.9525,-271"/>
<text text-anchor="middle" x="89" y="-250" font-family="Helvetica,sans-Serif" font-size="10.00" fill="#000000">les antall</text>
</g>
<!-- A2&#45;&gt;A4 -->
<g id="edge4" class="edge">
<title>A2&#45;&gt;A4</title>
<path fill="none" stroke="#000000" d="M44.8781,-325.6714C51.9693,-313.9917 63.2851,-295.3539 72.6814,-279.8777"/>
<polygon fill="#000000" stroke="#000000" points="77.9455,-271.2073 76.6023,-282.0907 75.3506,-275.4813 72.7557,-279.7552 72.7557,-279.7552 72.7557,-279.7552 75.3506,-275.4813 68.9092,-277.4198 77.9455,-271.2073 77.9455,-271.2073"/>
<text text-anchor="middle" x="92.5595" y="-292" font-family="Helvetica,sans-Serif" font-size="10.00" fill="#000000">gyldig alder</text>
</g>
<!-- A5 -->
<g id="node6" class="node">
<title>A5</title>
<ellipse fill="none" stroke="#000000" cx="68" cy="-15" rx="11" ry="11"/>
<ellipse fill="none" stroke="#000000" cx="68" cy="-15" rx="15" ry="15"/>
</g>
<!-- A3&#45;&gt;A5 -->
<g id="edge5" class="edge">
<title>A3&#45;&gt;A5</title>
<path fill="none" stroke="#000000" d="M37.5585,-66.9733C42.9526,-57.7638 49.5584,-46.4857 55.2362,-36.7918"/>
<polygon fill="#000000" stroke="#000000" points="60.3258,-28.1023 59.1547,-39.0055 57.7988,-32.4167 55.2717,-36.7311 55.2717,-36.7311 55.2717,-36.7311 57.7988,-32.4167 51.3887,-34.4568 60.3258,-28.1023 60.3258,-28.1023"/>
</g>
<!-- A6 -->
<g id="node7" class="node">
<title>A6</title>
<polygon fill="none" stroke="#000000" points="94,-187 76,-169 94,-151 112,-169 94,-187"/>
</g>
<!-- A4&#45;&gt;A6 -->
<g id="edge6" class="edge">
<title>A4&#45;&gt;A6</title>
<path fill="none" stroke="#000000" d="M90.0849,-234.7733C90.7581,-223.4642 91.6353,-208.7262 92.3888,-196.0684"/>
<polygon fill="#000000" stroke="#000000" points="92.9854,-186.0461 96.8831,-196.2958 92.6882,-191.0373 92.3911,-196.0284 92.3911,-196.0284 92.3911,-196.0284 92.6882,-191.0373 87.899,-195.761 92.9854,-186.0461 92.9854,-186.0461"/>
</g>
<!-- A6&#45;&gt;A3 -->
<g id="edge7" class="edge">
<title>A6&#45;&gt;A3</title>
<path fill="none" stroke="#000000" d="M83.97,-160.7653C75.9047,-153.8515 64.5697,-143.4524 56.15,-133 50.9035,-126.4869 45.9001,-118.9492 41.5658,-111.8048"/>
<polygon fill="#000000" stroke="#000000" points="36.4659,-103.0724 45.3949,-109.4381 38.9875,-107.39 41.5091,-111.7076 41.5091,-111.7076 41.5091,-111.7076 38.9875,-107.39 37.6233,-113.977 36.4659,-103.0724 36.4659,-103.0724"/>
<text text-anchor="middle" x="77.425" y="-124" font-family="Helvetica,sans-Serif" font-size="10.00" fill="#000000">antall &gt; 7</text>
</g>
<!-- A7 -->
<g id="node8" class="node">
<title>A7</title>
<path fill="none" stroke="#000000" d="M138.01,-103C138.01,-103 83.99,-103 83.99,-103 77.99,-103 71.99,-97 71.99,-91 71.99,-91 71.99,-79 71.99,-79 71.99,-73 77.99,-67 83.99,-67 83.99,-67 138.01,-67 138.01,-67 144.01,-67 150.01,-73 150.01,-79 150.01,-79 150.01,-91 150.01,-91 150.01,-97 144.01,-103 138.01,-103"/>
<text text-anchor="middle" x="111" y="-82" font-family="Helvetica,sans-Serif" font-size="10.00" fill="#000000">beregn pris</text>
</g>
<!-- A6&#45;&gt;A7 -->
<g id="edge8" class="edge">
<title>A6&#45;&gt;A7</title>
<path fill="none" stroke="#000000" d="M97.0393,-153.9825C99.3376,-142.6259 102.5597,-126.7049 105.3294,-113.0194"/>
<polygon fill="#000000" stroke="#000000" points="107.3364,-103.1023 109.7633,-113.7963 106.3446,-108.003 105.3528,-112.9036 105.3528,-112.9036 105.3528,-112.9036 106.3446,-108.003 100.9422,-112.011 107.3364,-103.1023 107.3364,-103.1023"/>
</g>
<!-- A7&#45;&gt;A5 -->
<g id="edge9" class="edge">
<title>A7&#45;&gt;A5</title>
<path fill="none" stroke="#000000" d="M99.9264,-66.9733C94.2692,-57.7638 87.3412,-46.4857 81.3864,-36.7918"/>
<polygon fill="#000000" stroke="#000000" points="76.0486,-28.1023 85.1171,-34.2677 78.6657,-32.3627 81.2828,-36.6231 81.2828,-36.6231 81.2828,-36.6231 78.6657,-32.3627 77.4484,-38.9785 76.0486,-28.1023 76.0486,-28.1023"/>
</g>
</g>
</svg>
