<?xml version="1.0" encoding="UTF-8" standalone="no"?>
<!DOCTYPE svg PUBLIC "-//W3C//DTD SVG 1.1//EN"
 "http://www.w3.org/Graphics/SVG/1.1/DTD/svg11.dtd">
<!-- Generated by graphviz version 2.40.1 (20161225.0304)
 -->
<!-- Title: G Pages: 1 -->
<svg width="277pt" height="773pt"
 viewBox="0.00 0.00 276.50 773.00" xmlns="http://www.w3.org/2000/svg" xmlns:xlink="http://www.w3.org/1999/xlink">
<g id="graph0" class="graph" transform="scale(1 1) rotate(0) translate(4 769)">
<title>G</title>
<polygon fill="#ffffff" stroke="transparent" points="-4,4 -4,-769 272.502,-769 272.502,4 -4,4"/>
<!-- A0 -->
<g id="node1" class="node">
<title>A0</title>
<ellipse fill="none" stroke="#000000" cx="71" cy="-754" rx="11" ry="11"/>
</g>
<!-- A1 -->
<g id="node2" class="node">
<title>A1</title>
<path fill="none" stroke="#000000" d="M118.0937,-706C118.0937,-706 23.9063,-706 23.9063,-706 17.9063,-706 11.9063,-700 11.9063,-694 11.9063,-694 11.9063,-682 11.9063,-682 11.9063,-676 17.9063,-670 23.9063,-670 23.9063,-670 118.0937,-670 118.0937,-670 124.0937,-670 130.0937,-676 130.0937,-682 130.0937,-682 130.0937,-694 130.0937,-694 130.0937,-700 124.0937,-706 118.0937,-706"/>
<text text-anchor="middle" x="71" y="-685" font-family="Helvetica,sans-Serif" font-size="10.00" fill="#000000">les bredde og hoyde</text>
</g>
<!-- A0&#45;&gt;A1 -->
<g id="edge1" class="edge">
<title>A0&#45;&gt;A1</title>
<path fill="none" stroke="#000000" d="M71,-742.804C71,-735.5358 71,-725.7135 71,-716.3916"/>
<polygon fill="#000000" stroke="#000000" points="71,-706.2423 75.5001,-716.2423 71,-711.2423 71.0001,-716.2423 71.0001,-716.2423 71.0001,-716.2423 71,-711.2423 66.5001,-716.2424 71,-706.2423 71,-706.2423"/>
</g>
<!-- A2 -->
<g id="node3" class="node">
<title>A2</title>
<polygon fill="none" stroke="#000000" points="71,-633 53,-615 71,-597 89,-615 71,-633"/>
</g>
<!-- A1&#45;&gt;A2 -->
<g id="edge2" class="edge">
<title>A1&#45;&gt;A2</title>
<path fill="none" stroke="#000000" d="M71,-669.9551C71,-661.8828 71,-652.1764 71,-643.1817"/>
<polygon fill="#000000" stroke="#000000" points="71,-633.0904 75.5001,-643.0903 71,-638.0904 71.0001,-643.0904 71.0001,-643.0904 71.0001,-643.0904 71,-638.0904 66.5001,-643.0904 71,-633.0904 71,-633.0904"/>
</g>
<!-- A3 -->
<g id="node4" class="node">
<title>A3</title>
<path fill="none" stroke="#000000" d="M42,-495C42,-495 12,-495 12,-495 6,-495 0,-489 0,-483 0,-483 0,-471 0,-471 0,-465 6,-459 12,-459 12,-459 42,-459 42,-459 48,-459 54,-465 54,-471 54,-471 54,-483 54,-483 54,-489 48,-495 42,-495"/>
<text text-anchor="middle" x="27" y="-474" font-family="Helvetica,sans-Serif" font-size="10.00" fill="#000000">Feil</text>
</g>
<!-- A2&#45;&gt;A3 -->
<g id="edge3" class="edge">
<title>A2&#45;&gt;A3</title>
<path fill="none" stroke="#000000" d="M58.3329,-609.3947C46.9902,-603.6026 31.0846,-593.38 23.984,-579 12.5921,-555.9295 15.0967,-526.2067 19.3967,-504.8049"/>
<polygon fill="#000000" stroke="#000000" points="21.5988,-495.0326 23.7904,-505.7772 20.4996,-499.9103 19.4004,-504.788 19.4004,-504.788 19.4004,-504.788 20.4996,-499.9103 15.0105,-503.7987 21.5988,-495.0326 21.5988,-495.0326"/>
<text text-anchor="middle" x="56.508" y="-570" font-family="Helvetica,sans-Serif" font-size="10.00" fill="#000000">bredde for stor</text>
</g>
<!-- A4 -->
<g id="node5" class="node">
<title>A4</title>
<path fill="none" stroke="#000000" d="M148.2882,-549C148.2882,-549 81.7118,-549 81.7118,-549 75.7118,-549 69.7118,-543 69.7118,-537 69.7118,-537 69.7118,-525 69.7118,-525 69.7118,-519 75.7118,-513 81.7118,-513 81.7118,-513 148.2882,-513 148.2882,-513 154.2882,-513 160.2882,-519 160.2882,-525 160.2882,-525 160.2882,-537 160.2882,-537 160.2882,-543 154.2882,-549 148.2882,-549"/>
<text text-anchor="middle" x="115" y="-528" font-family="Helvetica,sans-Serif" font-size="10.00" fill="#000000">beregn piksler</text>
</g>
<!-- A2&#45;&gt;A4 -->
<g id="edge4" class="edge">
<title>A2&#45;&gt;A4</title>
<path fill="none" stroke="#000000" d="M78.2869,-603.8507C82.7498,-596.8393 88.4569,-587.5347 93,-579 96.4728,-572.4759 99.9403,-565.3002 103.0614,-558.5304"/>
<polygon fill="#000000" stroke="#000000" points="107.3464,-549.0256 107.3388,-559.9914 105.2914,-553.5837 103.2364,-558.1419 103.2364,-558.1419 103.2364,-558.1419 105.2914,-553.5837 99.1341,-556.2924 107.3464,-549.0256 107.3464,-549.0256"/>
<text text-anchor="middle" x="128.009" y="-570" font-family="Helvetica,sans-Serif" font-size="10.00" fill="#000000">gyldig bredde</text>
</g>
<!-- A5 -->
<g id="node6" class="node">
<title>A5</title>
<ellipse fill="none" stroke="#000000" cx="94" cy="-15" rx="11" ry="11"/>
<ellipse fill="none" stroke="#000000" cx="94" cy="-15" rx="15" ry="15"/>
</g>
<!-- A3&#45;&gt;A5 -->
<g id="edge5" class="edge">
<title>A3&#45;&gt;A5</title>
<path fill="none" stroke="#000000" d="M27,-458.9707C27,-440.7057 27,-411.6389 27,-386.5 27,-386.5 27,-386.5 27,-85 27,-58.5692 52.2373,-38.2143 71.7336,-26.4332"/>
<polygon fill="#000000" stroke="#000000" points="80.4416,-21.4908 73.9659,-30.3405 76.0931,-23.9589 71.7447,-26.4269 71.7447,-26.4269 71.7447,-26.4269 76.0931,-23.9589 69.5234,-22.5133 80.4416,-21.4908 80.4416,-21.4908"/>
</g>
<!-- A6 -->
<g id="node7" class="node">
<title>A6</title>
<path fill="none" stroke="#000000" d="M158.3042,-441C158.3042,-441 71.6958,-441 71.6958,-441 65.6958,-441 59.6958,-435 59.6958,-429 59.6958,-429 59.6958,-417 59.6958,-417 59.6958,-411 65.6958,-405 71.6958,-405 71.6958,-405 158.3042,-405 158.3042,-405 164.3042,-405 170.3042,-411 170.3042,-417 170.3042,-417 170.3042,-429 170.3042,-429 170.3042,-435 164.3042,-441 158.3042,-441"/>
<text text-anchor="middle" x="115" y="-420" font-family="Helvetica,sans-Serif" font-size="10.00" fill="#000000">mult bredde hoyde</text>
</g>
<!-- A4&#45;&gt;A6 -->
<g id="edge6" class="edge">
<title>A4&#45;&gt;A6</title>
<path fill="none" stroke="#000000" d="M115,-512.6793C115,-495.821 115,-470.5651 115,-451.147"/>
<polygon fill="#000000" stroke="#000000" points="115,-441.0502 119.5001,-451.0501 115,-446.0502 115.0001,-451.0502 115.0001,-451.0502 115.0001,-451.0502 115,-446.0502 110.5001,-451.0502 115,-441.0502 115,-441.0502"/>
</g>
<!-- A7 -->
<g id="node8" class="node">
<title>A7</title>
<path fill="none" stroke="#000000" d="M144.4502,-368C144.4502,-368 85.5498,-368 85.5498,-368 79.5498,-368 73.5498,-362 73.5498,-356 73.5498,-356 73.5498,-344 73.5498,-344 73.5498,-338 79.5498,-332 85.5498,-332 85.5498,-332 144.4502,-332 144.4502,-332 150.4502,-332 156.4502,-338 156.4502,-344 156.4502,-344 156.4502,-356 156.4502,-356 156.4502,-362 150.4502,-368 144.4502,-368"/>
<text text-anchor="middle" x="115" y="-347" font-family="Helvetica,sans-Serif" font-size="10.00" fill="#000000">vis antall pix</text>
</g>
<!-- A6&#45;&gt;A7 -->
<g id="edge7" class="edge">
<title>A6&#45;&gt;A7</title>
<path fill="none" stroke="#000000" d="M115,-404.9551C115,-396.8828 115,-387.1764 115,-378.1817"/>
<polygon fill="#000000" stroke="#000000" points="115,-368.0904 119.5001,-378.0903 115,-373.0904 115.0001,-378.0904 115.0001,-378.0904 115.0001,-378.0904 115,-373.0904 110.5001,-378.0904 115,-368.0904 115,-368.0904"/>
</g>
<!-- A8 -->
<g id="node9" class="node">
<title>A8</title>
<polygon fill="none" stroke="#000000" points="115,-295 97,-277 115,-259 133,-277 115,-295"/>
</g>
<!-- A7&#45;&gt;A8 -->
<g id="edge8" class="edge">
<title>A7&#45;&gt;A8</title>
<path fill="none" stroke="#000000" d="M115,-331.9551C115,-323.8828 115,-314.1764 115,-305.1817"/>
<polygon fill="#000000" stroke="#000000" points="115,-295.0904 119.5001,-305.0903 115,-300.0904 115.0001,-305.0904 115.0001,-305.0904 115.0001,-305.0904 115,-300.0904 110.5001,-305.0904 115,-295.0904 115,-295.0904"/>
</g>
<!-- A9 -->
<g id="node10" class="node">
<title>A9</title>
<path fill="none" stroke="#000000" d="M96.4031,-157C96.4031,-157 53.5969,-157 53.5969,-157 47.5969,-157 41.5969,-151 41.5969,-145 41.5969,-145 41.5969,-133 41.5969,-133 41.5969,-127 47.5969,-121 53.5969,-121 53.5969,-121 96.4031,-121 96.4031,-121 102.4031,-121 108.4031,-127 108.4031,-133 108.4031,-133 108.4031,-145 108.4031,-145 108.4031,-151 102.4031,-157 96.4031,-157"/>
<text text-anchor="middle" x="75" y="-136" font-family="Helvetica,sans-Serif" font-size="10.00" fill="#000000">stående</text>
</g>
<!-- A8&#45;&gt;A9 -->
<g id="edge9" class="edge">
<title>A8&#45;&gt;A9</title>
<path fill="none" stroke="#000000" d="M102.8568,-270.912C92.382,-264.9086 77.9582,-254.6546 71.538,-241 60.7027,-217.9554 63.1244,-188.6378 67.3331,-167.3536"/>
<polygon fill="#000000" stroke="#000000" points="69.564,-157.3226 71.7857,-168.0611 68.4785,-162.2034 67.393,-167.0841 67.393,-167.0841 67.393,-167.0841 68.4785,-162.2034 63.0003,-166.1072 69.564,-157.3226 69.564,-157.3226"/>
<text text-anchor="middle" x="116.731" y="-232" font-family="Helvetica,sans-Serif" font-size="10.00" fill="#000000">bredde større hoyde</text>
</g>
<!-- A10 -->
<g id="node11" class="node">
<title>A10</title>
<polygon fill="none" stroke="#000000" points="179,-211 161,-193 179,-175 197,-193 179,-211"/>
</g>
<!-- A8&#45;&gt;A10 -->
<g id="edge11" class="edge">
<title>A8&#45;&gt;A10</title>
<path fill="none" stroke="#000000" d="M127.5189,-271.0497C138.9087,-265.0138 155.3687,-254.6264 165,-241 169.5469,-234.5671 172.6294,-226.6631 174.7144,-219.1394"/>
<polygon fill="#000000" stroke="#000000" points="176.9831,-209.2894 179.1237,-220.0443 175.8608,-214.1618 174.7385,-219.0342 174.7385,-219.0342 174.7385,-219.0342 175.8608,-214.1618 170.3533,-218.0242 176.9831,-209.2894 176.9831,-209.2894"/>
</g>
<!-- A9&#45;&gt;A5 -->
<g id="edge10" class="edge">
<title>A9&#45;&gt;A5</title>
<path fill="none" stroke="#000000" d="M77.7628,-120.9693C81.0294,-99.6502 86.4857,-64.0407 90.1616,-40.0507"/>
<polygon fill="#000000" stroke="#000000" points="91.711,-29.939 94.6444,-40.5052 90.9536,-34.8813 90.1963,-39.8236 90.1963,-39.8236 90.1963,-39.8236 90.9536,-34.8813 85.7482,-39.142 91.711,-29.939 91.711,-29.939"/>
</g>
<!-- A11 -->
<g id="node12" class="node">
<title>A11</title>
<path fill="none" stroke="#000000" d="M154.7923,-103C154.7923,-103 113.2077,-103 113.2077,-103 107.2077,-103 101.2077,-97 101.2077,-91 101.2077,-91 101.2077,-79 101.2077,-79 101.2077,-73 107.2077,-67 113.2077,-67 113.2077,-67 154.7923,-67 154.7923,-67 160.7923,-67 166.7923,-73 166.7923,-79 166.7923,-79 166.7923,-91 166.7923,-91 166.7923,-97 160.7923,-103 154.7923,-103"/>
<text text-anchor="middle" x="134" y="-82" font-family="Helvetica,sans-Serif" font-size="10.00" fill="#000000">liggende</text>
</g>
<!-- A10&#45;&gt;A11 -->
<g id="edge12" class="edge">
<title>A10&#45;&gt;A11</title>
<path fill="none" stroke="#000000" d="M166.3151,-187.0561C155.3699,-181.1496 140.2898,-170.957 133.539,-157 127.033,-143.5491 126.7031,-126.9622 128.2001,-113.1003"/>
<polygon fill="#000000" stroke="#000000" points="129.629,-103.1283 132.665,-113.6655 128.9198,-108.0777 128.2105,-113.0271 128.2105,-113.0271 128.2105,-113.0271 128.9198,-108.0777 123.756,-112.3888 129.629,-103.1283 129.629,-103.1283"/>
<text text-anchor="middle" x="180.2305" y="-136" font-family="Helvetica,sans-Serif" font-size="10.00" fill="#000000">bredde mindre høyde</text>
</g>
<!-- A12 -->
<g id="node13" class="node">
<title>A12</title>
<path fill="none" stroke="#000000" d="M256.504,-103C256.504,-103 207.496,-103 207.496,-103 201.496,-103 195.496,-97 195.496,-91 195.496,-91 195.496,-79 195.496,-79 195.496,-73 201.496,-67 207.496,-67 207.496,-67 256.504,-67 256.504,-67 262.504,-67 268.504,-73 268.504,-79 268.504,-79 268.504,-91 268.504,-91 268.504,-97 262.504,-103 256.504,-103"/>
<text text-anchor="middle" x="232" y="-82" font-family="Helvetica,sans-Serif" font-size="10.00" fill="#000000">kvadratisk</text>
</g>
<!-- A10&#45;&gt;A12 -->
<g id="edge14" class="edge">
<title>A10&#45;&gt;A12</title>
<path fill="none" stroke="#000000" d="M191.9995,-187.4407C203.678,-181.681 220.1582,-171.4804 228,-157 235.1736,-143.7535 236.4873,-127.0526 235.8649,-113.0712"/>
<polygon fill="#000000" stroke="#000000" points="235.0765,-103.0119 240.3442,-112.6297 235.4672,-107.9966 235.8579,-112.9813 235.8579,-112.9813 235.8579,-112.9813 235.4672,-107.9966 231.3717,-113.333 235.0765,-103.0119 235.0765,-103.0119"/>
</g>
<!-- A11&#45;&gt;A5 -->
<g id="edge13" class="edge">
<title>A11&#45;&gt;A5</title>
<path fill="none" stroke="#000000" d="M123.699,-66.9733C118.4365,-57.7638 111.9918,-46.4857 106.4525,-36.7918"/>
<polygon fill="#000000" stroke="#000000" points="101.487,-28.1023 110.3556,-34.5521 103.9677,-32.4435 106.4485,-36.7847 106.4485,-36.7847 106.4485,-36.7847 103.9677,-32.4435 102.5414,-39.0174 101.487,-28.1023 101.487,-28.1023"/>
</g>
<!-- A12&#45;&gt;A5 -->
<g id="edge15" class="edge">
<title>A12&#45;&gt;A5</title>
<path fill="none" stroke="#000000" d="M196.4616,-66.9733C171.2532,-54.1864 138.1827,-37.4115 116.5259,-26.4262"/>
<polygon fill="#000000" stroke="#000000" points="107.4478,-21.8214 118.4018,-22.332 111.907,-24.0833 116.3661,-26.3452 116.3661,-26.3452 116.3661,-26.3452 111.907,-24.0833 114.3304,-30.3584 107.4478,-21.8214 107.4478,-21.8214"/>
</g>
</g>
</svg>
