<?xml version="1.0" encoding="UTF-8" standalone="no"?><svg xmlns="http://www.w3.org/2000/svg" xmlns:xlink="http://www.w3.org/1999/xlink" contentScriptType="application/ecmascript" contentStyleType="text/css" height="618px" preserveAspectRatio="none" style="width:447px;height:618px;" version="1.1" viewBox="0 0 447 618" width="447px" zoomAndPan="magnify"><defs><filter height="300%" id="f143j6szs58lxh" width="300%" x="-1" y="-1"><feGaussianBlur result="blurOut" stdDeviation="2.0"/><feColorMatrix in="blurOut" result="blurOut2" type="matrix" values="0 0 0 0 0 0 0 0 0 0 0 0 0 0 0 0 0 0 .4 0"/><feOffset dx="4.0" dy="4.0" in="blurOut2" result="blurOut3"/><feBlend in="SourceGraphic" in2="blurOut3" mode="normal"/></filter></defs><g><polygon fill="#FBFB77" filter="url(#f143j6szs58lxh)" points="20,14.4111,20,39.7217,186,39.7217,186,24.4111,176,14.4111,20,14.4111" style="stroke: #A80036; stroke-width: 1.0;"/><line style="stroke: #A80036; stroke-width: 1.0;" x1="176" x2="176" y1="14.4111" y2="24.4111"/><line style="stroke: #A80036; stroke-width: 1.0;" x1="186" x2="176" y1="24.4111" y2="24.4111"/><text fill="#000000" font-family="sans-serif" font-size="13" lengthAdjust="spacingAndGlyphs" textLength="145" x="26" y="31.9795">husk å starte debugger</text><rect fill="#FEFECE" filter="url(#f143j6szs58lxh)" height="34.1328" rx="12.5" ry="12.5" style="stroke: #A80036; stroke-width: 1.5;" width="46" x="206" y="10"/><text fill="#000000" font-family="sans-serif" font-size="12" lengthAdjust="spacingAndGlyphs" textLength="26" x="216" y="31.6016">start</text><polygon fill="#FEFECE" filter="url(#f143j6szs58lxh)" points="185.5,64.1328,282.5,64.1328,272.5,81.1992,282.5,98.2656,185.5,98.2656" style="stroke: #A80036; stroke-width: 1.5;"/><text fill="#000000" font-family="sans-serif" font-size="12" lengthAdjust="spacingAndGlyphs" textLength="67" x="195.5" y="85.7344">beregn pris</text><rect fill="#FEFECE" filter="url(#f143j6szs58lxh)" height="34.1328" style="stroke: #A80036; stroke-width: 1.5;" width="69" x="194.5" y="118.2656"/><line style="stroke: #A80036; stroke-width: 1.5;" x1="199.5" x2="199.5" y1="118.2656" y2="152.3984"/><line style="stroke: #A80036; stroke-width: 1.5;" x1="258.5" x2="258.5" y1="118.2656" y2="152.3984"/><text fill="#000000" font-family="sans-serif" font-size="12" lengthAdjust="spacingAndGlyphs" textLength="49" x="204.5" y="139.8672">beregn()</text><polygon fill="#FEFECE" filter="url(#f143j6szs58lxh)" points="217,172.3984,241,172.3984,253,184.3984,241,196.3984,217,196.3984,205,184.3984,217,172.3984" style="stroke: #A80036; stroke-width: 1.5;"/><text fill="#000000" font-family="sans-serif" font-size="11" lengthAdjust="spacingAndGlyphs" textLength="20" x="219" y="188.5557">test</text><text fill="#000000" font-family="sans-serif" font-size="11" lengthAdjust="spacingAndGlyphs" textLength="18" x="187" y="182.0781">yes</text><rect fill="#FEFECE" filter="url(#f143j6szs58lxh)" height="34.1328" rx="12.5" ry="12.5" style="stroke: #A80036; stroke-width: 1.5;" width="60" x="147.5" y="206.3984"/><text fill="#000000" font-family="sans-serif" font-size="12" lengthAdjust="spacingAndGlyphs" textLength="40" x="157.5" y="228">dostuff</text><polygon fill="#FBFB77" filter="url(#f143j6szs58lxh)" points="353.5,210.8096,353.5,236.1201,425.5,236.1201,425.5,220.8096,415.5,210.8096,353.5,210.8096" style="stroke: #A80036; stroke-width: 1.0;"/><polygon fill="#FBFB77" points="353.5,210.8096,353.5,219.4648,333.5,223.4648,353.5,227.4648,353.5,236.1201,425.5,236.1201,425.5,220.8096,415.5,210.8096,353.5,210.8096" style="stroke: #A80036; stroke-width: 1.0;"/><line style="stroke: #A80036; stroke-width: 1.0;" x1="415.5" x2="415.5" y1="210.8096" y2="220.8096"/><line style="stroke: #A80036; stroke-width: 1.0;" x1="425.5" x2="415.5" y1="220.8096" y2="220.8096"/><text fill="#000000" font-family="sans-serif" font-size="13" lengthAdjust="spacingAndGlyphs" textLength="51" x="359.5" y="228.3779">her er vi</text><rect fill="#FEFECE" filter="url(#f143j6szs58lxh)" height="34.1328" rx="12.5" ry="12.5" style="stroke: #A80036; stroke-width: 1.5;" width="106" x="227.5" y="206.3984"/><text fill="#000000" font-family="sans-serif" font-size="12" lengthAdjust="spacingAndGlyphs" textLength="86" x="237.5" y="228">something else</text><polygon fill="#FEFECE" filter="url(#f143j6szs58lxh)" points="229,246.5313,241,258.5313,229,270.5313,217,258.5313,229,246.5313" style="stroke: #A80036; stroke-width: 1.5;"/><rect fill="#FEFECE" filter="url(#f143j6szs58lxh)" height="34.1328" rx="12.5" ry="12.5" style="stroke: #A80036; stroke-width: 1.5;" width="41" x="208.5" y="290.5313"/><text fill="#000000" font-family="sans-serif" font-size="12" lengthAdjust="spacingAndGlyphs" textLength="21" x="218.5" y="312.1328">i=0</text><rect fill="#FEFECE" filter="url(#f143j6szs58lxh)" height="34.1328" rx="12.5" ry="12.5" style="stroke: #A80036; stroke-width: 1.5;" width="77" x="190.5" y="388.6641"/><text fill="#000000" font-family="sans-serif" font-size="12" lengthAdjust="spacingAndGlyphs" textLength="57" x="200.5" y="410.2656">read data</text><rect fill="#FEFECE" filter="url(#f143j6szs58lxh)" height="34.1328" rx="12.5" ry="12.5" style="stroke: #A80036; stroke-width: 1.5;" width="129" x="164.5" y="442.7969"/><text fill="#000000" font-family="sans-serif" font-size="12" lengthAdjust="spacingAndGlyphs" textLength="109" x="174.5" y="464.3984">generate diagrams</text><rect fill="#FEFECE" filter="url(#f143j6szs58lxh)" height="34.1328" rx="12.5" ry="12.5" style="stroke: #A80036; stroke-width: 1.5;" width="43" x="207.5" y="496.9297"/><text fill="#000000" font-family="sans-serif" font-size="12" lengthAdjust="spacingAndGlyphs" textLength="23" x="217.5" y="518.5313">i++</text><polygon fill="#FEFECE" filter="url(#f143j6szs58lxh)" points="216,344.6641,242,344.6641,254,356.6641,242,368.6641,216,368.6641,204,356.6641,216,344.6641" style="stroke: #A80036; stroke-width: 1.5;"/><text fill="#000000" font-family="sans-serif" font-size="11" lengthAdjust="spacingAndGlyphs" textLength="26" x="216" y="360.8213">i&lt;10</text><rect fill="#FEFECE" filter="url(#f143j6szs58lxh)" height="34.1328" rx="12.5" ry="12.5" style="stroke: #A80036; stroke-width: 1.5;" width="42" x="208" y="573.0625"/><text fill="#000000" font-family="sans-serif" font-size="12" lengthAdjust="spacingAndGlyphs" textLength="22" x="218" y="594.6641">end</text><line style="stroke: #A80036; stroke-width: 1.5;" x1="229" x2="229" y1="44.1328" y2="64.1328"/><polygon fill="#A80036" points="225,54.1328,229,64.1328,233,54.1328,229,58.1328" style="stroke: #A80036; stroke-width: 1.0;"/><line style="stroke: #A80036; stroke-width: 1.5;" x1="229" x2="229" y1="98.2656" y2="118.2656"/><polygon fill="#A80036" points="225,108.2656,229,118.2656,233,108.2656,229,112.2656" style="stroke: #A80036; stroke-width: 1.0;"/><line style="stroke: #A80036; stroke-width: 1.5;" x1="205" x2="177.5" y1="184.3984" y2="184.3984"/><line style="stroke: #A80036; stroke-width: 1.5;" x1="177.5" x2="177.5" y1="184.3984" y2="206.3984"/><polygon fill="#A80036" points="173.5,196.3984,177.5,206.3984,181.5,196.3984,177.5,200.3984" style="stroke: #A80036; stroke-width: 1.0;"/><line style="stroke: #A80036; stroke-width: 1.5;" x1="253" x2="280.5" y1="184.3984" y2="184.3984"/><line style="stroke: #A80036; stroke-width: 1.5;" x1="280.5" x2="280.5" y1="184.3984" y2="206.3984"/><polygon fill="#A80036" points="276.5,196.3984,280.5,206.3984,284.5,196.3984,280.5,200.3984" style="stroke: #A80036; stroke-width: 1.0;"/><line style="stroke: #A80036; stroke-width: 1.5;" x1="177.5" x2="177.5" y1="240.5313" y2="258.5313"/><line style="stroke: #A80036; stroke-width: 1.5;" x1="177.5" x2="217" y1="258.5313" y2="258.5313"/><polygon fill="#A80036" points="207,254.5313,217,258.5313,207,262.5313,211,258.5313" style="stroke: #A80036; stroke-width: 1.0;"/><line style="stroke: #A80036; stroke-width: 1.5;" x1="280.5" x2="280.5" y1="240.5313" y2="258.5313"/><line style="stroke: #A80036; stroke-width: 1.5;" x1="280.5" x2="241" y1="258.5313" y2="258.5313"/><polygon fill="#A80036" points="251,254.5313,241,258.5313,251,262.5313,247,258.5313" style="stroke: #A80036; stroke-width: 1.0;"/><line style="stroke: #A80036; stroke-width: 1.5;" x1="229" x2="229" y1="152.3984" y2="172.3984"/><polygon fill="#A80036" points="225,162.3984,229,172.3984,233,162.3984,229,166.3984" style="stroke: #A80036; stroke-width: 1.0;"/><line style="stroke: #A80036; stroke-width: 1.5;" x1="229" x2="229" y1="270.5313" y2="290.5313"/><polygon fill="#A80036" points="225,280.5313,229,290.5313,233,280.5313,229,284.5313" style="stroke: #A80036; stroke-width: 1.0;"/><line style="stroke: #A80036; stroke-width: 1.5;" x1="229" x2="229" y1="422.7969" y2="442.7969"/><polygon fill="#A80036" points="225,432.7969,229,442.7969,233,432.7969,229,436.7969" style="stroke: #A80036; stroke-width: 1.0;"/><line style="stroke: #A80036; stroke-width: 1.5;" x1="229" x2="229" y1="476.9297" y2="496.9297"/><polygon fill="#A80036" points="225,486.9297,229,496.9297,233,486.9297,229,490.9297" style="stroke: #A80036; stroke-width: 1.0;"/><line style="stroke: #A80036; stroke-width: 1.5;" x1="229" x2="229" y1="368.6641" y2="388.6641"/><polygon fill="#A80036" points="225,378.6641,229,388.6641,233,378.6641,229,382.6641" style="stroke: #A80036; stroke-width: 1.0;"/><line style="stroke: #A80036; stroke-width: 1.5;" x1="229" x2="229" y1="531.0625" y2="541.0625"/><line style="stroke: #A80036; stroke-width: 1.5;" x1="229" x2="305.5" y1="541.0625" y2="541.0625"/><polygon fill="#A80036" points="301.5,457.8633,305.5,447.8633,309.5,457.8633,305.5,453.8633" style="stroke: #A80036; stroke-width: 1.5;"/><line style="stroke: #A80036; stroke-width: 1.5;" x1="305.5" x2="305.5" y1="356.6641" y2="541.0625"/><line style="stroke: #A80036; stroke-width: 1.5;" x1="305.5" x2="254" y1="356.6641" y2="356.6641"/><polygon fill="#A80036" points="264,352.6641,254,356.6641,264,360.6641,260,356.6641" style="stroke: #A80036; stroke-width: 1.0;"/><line style="stroke: #A80036; stroke-width: 1.5;" x1="204" x2="152.5" y1="356.6641" y2="356.6641"/><polygon fill="#A80036" points="148.5,443.8633,152.5,453.8633,156.5,443.8633,152.5,447.8633" style="stroke: #A80036; stroke-width: 1.5;"/><line style="stroke: #A80036; stroke-width: 1.5;" x1="152.5" x2="152.5" y1="356.6641" y2="553.0625"/><line style="stroke: #A80036; stroke-width: 1.5;" x1="152.5" x2="229" y1="553.0625" y2="553.0625"/><line style="stroke: #A80036; stroke-width: 1.5;" x1="229" x2="229" y1="553.0625" y2="573.0625"/><polygon fill="#A80036" points="225,563.0625,229,573.0625,233,563.0625,229,567.0625" style="stroke: #A80036; stroke-width: 1.0;"/><line style="stroke: #A80036; stroke-width: 1.5;" x1="229" x2="229" y1="324.6641" y2="344.6641"/><polygon fill="#A80036" points="225,334.6641,229,344.6641,233,334.6641,229,338.6641" style="stroke: #A80036; stroke-width: 1.0;"/><!--
@startuml
:start;
floating note left: husk å starte debugger
:beregn pris<
:beregn()|
if (test) then (yes)
  :dostuff;
else
  :something else;
  note right: her er vi
endif
:i=0;
while (i<10)
  :read data;
  :generate diagrams;
  :i++;
endwhile

:end;

@enduml

PlantUML version 1.2017.20(Mon Dec 11 17:57:05 CET 2017)
(GPL source distribution)
Java Runtime: Java(TM) SE Runtime Environment
JVM: Java HotSpot(TM) 64-Bit Server VM
Java Version: 1.8.0_161-b12
Operating System: Mac OS X
OS Version: 10.10.5
Default Encoding: UTF-8
Language: nb
Country: null
--></g></svg>